<?xml version="1.0" encoding="utf-8"?>
<!-- Generator: Adobe Illustrator 26.0.3, SVG Export Plug-In . SVG Version: 6.00 Build 0)  -->
<svg version="1.1" xmlns="http://www.w3.org/2000/svg" xmlns:xlink="http://www.w3.org/1999/xlink" x="0px" y="0px"
	 viewBox="0 0 226.8 64.4" style="enable-background:new 0 0 226.8 64.4;" xml:space="preserve">
<style type="text/css">
	.st0{fill:#FFFFFF;}
	.st1{fill:none;stroke:#FFFFFF;stroke-width:1.4133;stroke-miterlimit:22.9256;}
</style>
<g id="Layer_1">
	<g>
		<path class="st0" d="M189.4,45.7h-3v7h-1.7v-7h-3v-1.4h7.6V45.7z M174.7,48.1h3.3c0.6,0,0.8-0.4,0.8-1.1c0-0.5-0.1-0.9-0.4-1.1
			c-0.3-0.2-0.8-0.3-1.5-0.3c-0.8,0-1.4,0.2-1.7,0.5C174.9,46.4,174.7,47.1,174.7,48.1z M178.5,49.3h-3.8c0.1,0.9,0.3,1.5,0.7,1.7
			c0.4,0.3,1,0.4,1.8,0.4c0.7,0,1.7-0.1,2.9-0.2l0.2,1.1c-0.8,0.3-1.9,0.5-3.3,0.5c-1.5,0-2.5-0.3-3.1-1c-0.6-0.7-0.9-1.8-0.9-3.4
			c0-1.6,0.3-2.8,0.9-3.4c0.6-0.7,1.6-1,3-1c1.3,0,2.2,0.2,2.8,0.7c0.6,0.5,0.9,1.2,0.9,2.1C180.5,48.5,179.9,49.3,178.5,49.3z
			 M171.7,45.7h-3v7h-1.7v-7h-3v-1.4h7.6V45.7z M162.4,52.7h-1.5v-5.3c0-0.1,0-0.4,0-0.6c0-0.3,0-0.4,0-0.5h0
			c-0.1,0.3-0.3,0.7-0.6,1l-4,5.4h-1.3v-8.4h1.5v5.3c0,0.3,0,0.7-0.1,1.1h0.1c0.2-0.4,0.4-0.8,0.6-1l4-5.4h1.3V52.7z M152.8,51.3
			l0.2,1.1c-0.9,0.3-1.8,0.5-2.9,0.5c-1.5,0-2.5-0.3-3.1-1c-0.6-0.7-0.9-1.8-0.9-3.4c0-1.6,0.3-2.7,0.9-3.4c0.6-0.7,1.6-1,3.1-1
			c1.1,0,2,0.1,2.8,0.4l-0.2,1.1c-0.9-0.1-1.6-0.1-2.3-0.1c-1,0-1.6,0.2-2,0.6c-0.4,0.4-0.5,1.2-0.5,2.4c0,1.2,0.2,1.9,0.5,2.4
			c0.4,0.4,1,0.6,2,0.6C151.3,51.5,152.1,51.5,152.8,51.3z M138.1,46.8V51c1.1,0.3,2,0.4,2.5,0.4c0.7,0,1.2-0.2,1.5-0.6
			c0.3-0.4,0.4-1.2,0.4-2.3c0-1.1-0.1-1.9-0.4-2.3c-0.3-0.4-0.7-0.7-1.3-0.7c-0.4,0-0.8,0.1-1.2,0.3C139.2,46,138.7,46.4,138.1,46.8
			z M137.8,44.4l0.1,1.3c0.4-0.5,1-0.8,1.6-1.1c0.6-0.3,1.3-0.4,1.9-0.4c1,0,1.7,0.4,2.2,1.1c0.5,0.7,0.7,1.9,0.7,3.3
			c0,1.6-0.3,2.7-0.8,3.3c-0.5,0.7-1.3,1-2.4,1c-1.1,0-2.1-0.3-3-0.8c0,0.6,0.1,1.1,0.1,1.7v2.3h-1.6V44.4H137.8z M128.4,48.1h3.3
			c0.6,0,0.8-0.4,0.8-1.1c0-0.5-0.1-0.9-0.4-1.1c-0.3-0.2-0.8-0.3-1.5-0.3c-0.8,0-1.4,0.2-1.7,0.5C128.6,46.4,128.5,47.1,128.4,48.1
			z M132.2,49.3h-3.8c0.1,0.9,0.3,1.5,0.7,1.7c0.4,0.3,1,0.4,1.8,0.4c0.7,0,1.7-0.1,2.9-0.2l0.2,1.1c-0.8,0.3-1.9,0.5-3.3,0.5
			c-1.5,0-2.5-0.3-3.1-1c-0.6-0.7-0.9-1.8-0.9-3.4c0-1.6,0.3-2.8,0.9-3.4c0.6-0.7,1.6-1,3-1c1.3,0,2.2,0.2,2.8,0.7
			c0.6,0.5,0.9,1.2,0.9,2.1C134.3,48.5,133.6,49.3,132.2,49.3z M119.2,51.5l2.1,0c0.7,0,1.3-0.1,1.5-0.2c0.3-0.2,0.4-0.5,0.4-1
			c0-0.5-0.2-0.8-0.5-1c-0.3-0.2-0.8-0.3-1.6-0.3h-2.1V51.5z M119.2,47.8h2.1c0.7,0,1.2-0.1,1.4-0.2c0.3-0.2,0.4-0.5,0.4-0.9
			c0-0.4-0.1-0.7-0.4-0.9c-0.3-0.1-0.8-0.2-1.6-0.2h-1.8V47.8z M122.8,48.4L122.8,48.4c0.8,0.1,1.3,0.3,1.6,0.7
			c0.3,0.4,0.5,0.9,0.5,1.6c0,0.8-0.3,1.4-0.8,1.7c-0.5,0.3-1.4,0.5-2.6,0.5c-1.7,0-3,0-4-0.1v-8.4c0.9-0.1,2-0.1,3.5-0.1
			c1.3,0,2.2,0.2,2.8,0.5c0.5,0.3,0.8,0.9,0.8,1.8c0,0.6-0.1,1-0.4,1.4C123.9,48.2,123.4,48.4,122.8,48.4z M115,52.7h-1.5v-5.3
			c0-0.1,0-0.4,0-0.6c0-0.3,0-0.4,0-0.5h0c-0.1,0.3-0.3,0.7-0.6,1l-4,5.4h-1.3v-8.4h1.5v5.3c0,0.3,0,0.7-0.1,1.1h0.1
			c0.2-0.4,0.4-0.8,0.6-1l4-5.4h1.3V52.7z M104.9,44.4v8.4h-1.6v-3.8h-4.1v3.8h-1.6v-8.4h1.6v3.3h4.1v-3.3H104.9z M96.5,40.9
			l-3.1,8.9c-0.4,1-0.7,1.7-1.1,2.2c-0.4,0.5-0.9,0.8-1.6,0.8c-0.7,0.1-1.5,0-2.2-0.3l0.2-1.3c0.4,0,0.7,0,0.9,0c0.2,0,0.4,0,0.6,0
			c0.2,0,0.4,0,0.5-0.1c0.1-0.1,0.2-0.1,0.3-0.2c0.1-0.1,0.2-0.2,0.3-0.3c0.1-0.1,0.2-0.3,0.2-0.4c0.1-0.1,0.2-0.3,0.3-0.6l0.2-0.5
			h-0.6c-0.3,0-0.6-0.1-0.8-0.2c-0.2-0.1-0.3-0.4-0.5-0.7l-2.7-7.5h1.7l2.3,6.7c0.1,0.2,0.2,0.3,0.4,0.3h0.7l2.4-7H96.5z M226.8,37
			h-1.5v-5.3c0-0.1,0-0.4,0-0.6c0-0.3,0-0.4,0-0.5h0c-0.1,0.3-0.3,0.7-0.6,1l-4,5.4h-1.3v-8.4h1.5v5.3c0,0.3,0,0.7-0.1,1.1h0.1
			c0.2-0.4,0.4-0.8,0.6-1l4-5.4h1.3V37z M224.4,24.9h1.3c0.1,0.7-0.2,1.3-0.6,1.7c-0.5,0.5-1.1,0.7-2,0.7c-0.8,0-1.5-0.2-2-0.7
			c-0.5-0.5-0.7-1-0.6-1.7h1.3c0,1,0.5,1.5,1.4,1.5C223.9,26.4,224.4,25.9,224.4,24.9z M208.4,35.7l1.8,0c0.7,0,1.1-0.1,1.3-0.3
			c0.2-0.2,0.4-0.6,0.4-1.1c0-0.5-0.1-0.9-0.4-1.1c-0.2-0.2-0.7-0.3-1.3-0.3h-1.8V35.7z M216.7,28.6V37H215v-8.4H216.7z M208.4,31.8
			h1.8c1.3,0,2.2,0.2,2.7,0.6c0.5,0.4,0.7,1.1,0.7,2.1c0,1-0.2,1.7-0.7,2.1c-0.5,0.4-1.3,0.6-2.4,0.6c-1.6,0-2.8,0-3.7-0.1h0v-8.4
			h1.6V31.8z M204.2,28.6V37h-1.6v-3.8h-4.1V37h-1.6v-8.4h1.6v3.3h4.1v-3.3H204.2z M194.2,28.6V37h-1.6v-3.8h-4.1V37h-1.6v-8.4h1.6
			v3.3h4.1v-3.3H194.2z M178.8,32.3h3.3c0.6,0,0.8-0.4,0.8-1.1c0-0.5-0.1-0.9-0.4-1.1c-0.3-0.2-0.8-0.3-1.5-0.3
			c-0.8,0-1.4,0.2-1.7,0.5C179,30.7,178.8,31.3,178.8,32.3z M182.6,33.6h-3.8c0.1,0.9,0.3,1.5,0.7,1.7c0.4,0.3,1,0.4,1.8,0.4
			c0.7,0,1.7-0.1,2.9-0.2l0.2,1.1c-0.8,0.3-1.9,0.5-3.3,0.5c-1.5,0-2.5-0.3-3.1-1c-0.6-0.7-0.9-1.8-0.9-3.4c0-1.6,0.3-2.8,0.9-3.4
			c0.6-0.7,1.6-1,3-1c1.3,0,2.2,0.2,2.8,0.7c0.6,0.5,0.9,1.2,0.9,2.1C184.6,32.8,183.9,33.6,182.6,33.6z M169.5,35.8l2.1,0
			c0.7,0,1.3-0.1,1.5-0.2c0.3-0.2,0.4-0.5,0.4-1c0-0.5-0.2-0.8-0.5-1c-0.3-0.2-0.8-0.3-1.6-0.3h-2.1V35.8z M169.5,32.1h2.1
			c0.7,0,1.2-0.1,1.4-0.2c0.3-0.2,0.4-0.5,0.4-0.9c0-0.4-0.1-0.7-0.4-0.9c-0.3-0.1-0.8-0.2-1.6-0.2h-1.8V32.1z M173.2,32.6
			L173.2,32.6c0.8,0.1,1.3,0.3,1.6,0.7c0.3,0.4,0.5,0.9,0.5,1.6c0,0.8-0.3,1.4-0.8,1.7c-0.5,0.3-1.4,0.5-2.6,0.5c-1.7,0-3,0-4-0.1
			v-8.4c0.9-0.1,2-0.1,3.5-0.1c1.3,0,2.2,0.2,2.8,0.5c0.5,0.3,0.8,0.9,0.8,1.8c0,0.6-0.1,1-0.4,1.4
			C174.3,32.4,173.8,32.6,173.2,32.6z M166.2,30h-3v7h-1.7v-7h-3v-1.4h7.6V30z M157.4,35.6l0.2,1.1c-0.9,0.3-1.8,0.5-2.9,0.5
			c-1.5,0-2.5-0.3-3.1-1c-0.6-0.7-0.9-1.8-0.9-3.4c0-1.6,0.3-2.7,0.9-3.4c0.6-0.7,1.6-1,3.1-1c1.1,0,2,0.1,2.8,0.4l-0.2,1.1
			c-0.9-0.1-1.6-0.1-2.3-0.1c-1,0-1.6,0.2-2,0.6c-0.4,0.4-0.5,1.2-0.5,2.4c0,1.2,0.2,1.9,0.5,2.4c0.4,0.4,1,0.6,2,0.6
			C155.8,35.8,156.7,35.7,157.4,35.6z M142.6,31v4.2c1.1,0.3,2,0.4,2.5,0.4c0.7,0,1.2-0.2,1.5-0.6c0.3-0.4,0.4-1.2,0.4-2.3
			c0-1.1-0.1-1.9-0.4-2.3c-0.3-0.4-0.7-0.7-1.3-0.7c-0.4,0-0.8,0.1-1.2,0.3C143.7,30.3,143.2,30.6,142.6,31z M142.4,28.6l0.1,1.3
			c0.4-0.5,1-0.8,1.6-1.1c0.6-0.3,1.3-0.4,1.9-0.4c1,0,1.7,0.4,2.2,1.1c0.5,0.7,0.7,1.9,0.7,3.3c0,1.6-0.3,2.7-0.8,3.3
			c-0.5,0.7-1.3,1-2.4,1c-1.1,0-2.1-0.3-3-0.8c0,0.6,0.1,1.1,0.1,1.7v2.3H141V28.6H142.4z M132.7,34.1v0.4c0,0.4,0.1,0.7,0.3,0.9
			c0.2,0.2,0.5,0.3,0.9,0.3c1,0,1.9-0.4,2.8-1.2V33h-3c-0.4,0-0.6,0.1-0.8,0.3C132.8,33.5,132.7,33.8,132.7,34.1z M131.6,30
			l-0.2-1.2c1.5-0.3,2.8-0.4,4.1-0.4c1,0,1.8,0.2,2.2,0.6c0.5,0.4,0.7,1.1,0.7,2.1V37h-1.3l-0.2-1.3c-1,1-2.1,1.5-3.3,1.5
			c-0.8,0-1.4-0.2-1.9-0.6c-0.5-0.4-0.7-1-0.7-1.7v-0.9c0-0.7,0.2-1.2,0.6-1.5c0.4-0.4,1-0.5,1.8-0.5h3.4v-0.7
			c0-0.5-0.1-0.9-0.4-1.1c-0.2-0.2-0.7-0.3-1.3-0.3C134.4,29.8,133.3,29.9,131.6,30z M126.8,29.9h-1.6c-0.6,0-1,0.3-1,1
			c-0.1,2-0.5,3.5-1.2,4.8h3.9V29.9z M129.6,35.6v3.8h-1.1l-0.1-2.5h-6.6l-0.1,2.5h-1.1v-3.8h1c0.7-1.4,1-3.1,1.2-5
			c0.1-1.3,0.8-2,2.2-2h3.5v7H129.6z M120.4,28.6l-3.3,8.8c-0.4,1.2-0.9,2-1.6,2.5c-0.8,0.6-1.9,0.8-3.3,0.5l0.2-1.2
			c0.9,0.1,1.6,0,2-0.3c0.4-0.3,0.8-0.8,1.1-1.6l0.1-0.3h-0.4c-0.3,0-0.5-0.1-0.6-0.4l-2.9-7.9h1.8l2.1,6.1c0.2,0.4,0.3,0.8,0.3,1
			h0.2c0-0.1,0.1-0.2,0.1-0.3s0.1-0.3,0.1-0.4c0-0.1,0.1-0.2,0.1-0.3l2.1-6.1H120.4z M110.7,35.6l0.2,1.1c-0.9,0.3-1.8,0.5-2.9,0.5
			c-1.5,0-2.5-0.3-3.1-1c-0.6-0.7-0.9-1.8-0.9-3.4c0-1.6,0.3-2.7,0.9-3.4c0.6-0.7,1.6-1,3.1-1c1.1,0,2,0.1,2.8,0.4l-0.2,1.1
			c-0.9-0.1-1.6-0.1-2.3-0.1c-1,0-1.6,0.2-2,0.6c-0.4,0.4-0.5,1.2-0.5,2.4c0,1.2,0.2,1.9,0.5,2.4c0.4,0.4,1,0.6,2,0.6
			C109.2,35.8,110,35.7,110.7,35.6z M99.9,30.4c-0.3-0.4-0.9-0.6-1.8-0.6c-0.9,0-1.5,0.2-1.8,0.6c-0.3,0.4-0.5,1.2-0.5,2.4
			c0,1.2,0.2,1.9,0.5,2.4c0.3,0.4,0.9,0.6,1.8,0.6c0.9,0,1.4-0.2,1.8-0.6c0.3-0.4,0.5-1.2,0.5-2.4C100.4,31.6,100.3,30.8,99.9,30.4z
			 M95.1,29.4c0.6-0.7,1.6-1,3.1-1c1.4,0,2.5,0.3,3.1,1c0.6,0.7,0.9,1.8,0.9,3.4c0,1.6-0.3,2.7-0.9,3.4c-0.6,0.7-1.6,1-3.1,1
			c-1.5,0-2.5-0.3-3.1-1c-0.6-0.7-0.9-1.8-0.9-3.4C94.2,31.2,94.5,30.1,95.1,29.4z M88.4,37v-9.5c0-0.7,0.2-1.2,0.6-1.7
			c0.4-0.4,1-0.7,1.6-0.7c2.3,0,3.9,0.1,4.9,0.2l-0.1,1.3h-4.3c-0.4,0-0.7,0.1-0.8,0.3c-0.2,0.2-0.2,0.5-0.2,0.9V37H88.4z
			 M171.9,21.4h-2.8v-3.8c0-0.3,0-0.8,0.1-1.5h-0.1c-0.2,0.5-0.4,1-0.7,1.4l-2.7,3.9h-2.7v-8.5h2.8v4c0,0.3,0,0.7-0.1,1.3h0.1
			c0.1-0.4,0.4-0.8,0.7-1.2l2.7-4.1h2.7V21.4z M168.5,9.1h2c0.1,0.8-0.1,1.4-0.7,2c-0.6,0.6-1.3,0.8-2.3,0.8c-1,0-1.7-0.3-2.3-0.8
			c-0.6-0.6-0.8-1.2-0.7-2h2c0,0.5,0,0.9,0.2,1.1c0.2,0.2,0.4,0.3,0.8,0.3c0.4,0,0.6-0.1,0.8-0.3C168.5,9.9,168.5,9.6,168.5,9.1z
			 M161.2,21.4h-2.8v-3.8c0-0.3,0-0.8,0.1-1.5h-0.1c-0.2,0.5-0.4,1-0.7,1.4l-2.7,3.9h-2.7v-8.5h2.8v4c0,0.3,0,0.7-0.1,1.3h0.1
			c0.1-0.4,0.4-0.8,0.7-1.2l2.7-4.1h2.7V21.4z M148.1,16.9L148.1,16.9c0.2,0.1,0.4,0.1,0.5,0.2c0.1,0,0.3,0.1,0.4,0.1
			c0.2,0.1,0.3,0.1,0.4,0.1c0.1,0,0.2,0.1,0.3,0.2c0.1,0.1,0.2,0.2,0.3,0.3c0,0.1,0.1,0.2,0.2,0.4c0.1,0.2,0.2,0.4,0.2,0.5
			c0,0.1,0.1,0.4,0.2,0.7c0.1,0.3,0.2,0.6,0.3,0.9c0.1,0.2,0.2,0.6,0.3,1.1h-3.2c-0.5-1.6-0.8-2.6-0.9-2.9c-0.2-0.3-0.5-0.5-0.9-0.5
			h-0.7c0.1,0.2,0.1,0.5,0.1,0.7v2.7h-3.1v-8.5h3.1v2c0,0.3,0,0.7-0.1,1.1h0.4c0.6,0,1-0.1,1.2-0.4c0.2-0.3,0.5-1.2,0.8-2.6h3.1
			c-0.5,1.7-0.8,2.7-1,2.9c-0.2,0.5-0.5,0.8-0.9,0.9C149,16.8,148.6,16.8,148.1,16.9z M141,19l0.3,2c-0.9,0.4-2,0.7-3.5,0.7
			c-1.6,0-2.8-0.3-3.4-1c-0.7-0.7-1-1.8-1-3.5c0-1.6,0.3-2.8,1-3.5c0.7-0.7,1.8-1,3.4-1c1.4,0,2.5,0.2,3.4,0.6l-0.3,1.9l-2.5,0
			c-0.7,0-1.1,0.1-1.3,0.4c-0.2,0.3-0.4,0.8-0.4,1.6c0,0.8,0.1,1.3,0.4,1.6c0.2,0.3,0.7,0.4,1.3,0.4C139.3,19.1,140.2,19.1,141,19z
			 M126.2,15.5v3.7c0.7,0.2,1.1,0.3,1.5,0.3c0.5,0,0.8-0.1,1-0.4c0.2-0.3,0.3-0.9,0.3-1.8c0-0.9-0.1-1.5-0.2-1.8
			c-0.2-0.3-0.5-0.4-0.9-0.4C127.4,15,126.8,15.2,126.2,15.5z M125.6,12.9l0.2,1.2c0.3-0.4,0.8-0.7,1.4-1c0.6-0.3,1.2-0.4,1.9-0.4
			c2,0,3,1.5,3,4.6c0,1.7-0.3,2.8-0.8,3.4c-0.5,0.6-1.3,1-2.5,1c-1.1,0-2-0.3-2.7-0.8c0.1,0.6,0.1,1.2,0.1,1.8v1.9h-3.1V12.9H125.6z
			 M122.2,12.9l-2.8,8.4c-0.3,0.9-0.7,1.7-1.1,2.2c-0.5,0.5-1.1,0.9-1.8,1.1c-0.9,0.4-2.1,0.4-3.5,0.2l0.3-2c1.1,0,1.9-0.1,2.4-0.4
			c0.3-0.2,0.6-0.5,0.9-1h-0.6c-0.5,0-0.8-0.2-1-0.7l-2.6-7.8h3.3l1.3,5.1c0.1,0.6,0.2,1.1,0.2,1.5h0.2c0.1-0.5,0.3-1,0.4-1.5
			l1.3-5.1H122.2z M107.4,12.9h2.7c0.7,0,1,0.4,1.1,1.1l0.2,7.4h-2.8l-0.2-6.3h-0.2l-1,4.1c-0.1,0.6-0.5,0.9-1.2,0.9h-1.4
			c-0.7,0-1.1-0.3-1.2-0.9l-1-4.1h-0.2l-0.2,6.3h-2.8l0.2-7.4c0-0.7,0.4-1.1,1.1-1.1h2.6c0.7,0,1,0.3,1.1,1l0.8,3.2
			c0,0.1,0.1,0.5,0.2,1.3h0.1c0-0.1,0-0.3,0.1-0.6c0-0.3,0.1-0.5,0.1-0.7l0.7-3.2C106.4,13.2,106.8,12.9,107.4,12.9z M93.9,16.2
			l-0.8-3C93,12.6,93,12.2,93,12h-0.5c-0.1,0.4-0.2,0.8-0.2,1.2l-0.8,3H93.9z M94.5,18.6h-3.6l-0.7,2.8h-3.3l3.2-11
			c0.1-0.3,0.2-0.5,0.4-0.6c0.2-0.2,0.4-0.2,0.7-0.2h3c0.3,0,0.5,0.1,0.7,0.2c0.2,0.2,0.3,0.4,0.4,0.6l3.2,11h-3.3L94.5,18.6z"/>
		<line class="st1" x1="73.3" y1="9.2" x2="73.3" y2="52.6"/>
		<path class="st0" d="M10.3,36.3L10.3,36.3l0,5.1l-9.1-9.1l9.1-9.1v7l19.3-19.3l17.5,17.5l-3.3,0.3c-2.5,0-6.4-0.8-10.7-1.9
			c-3.7-0.9-8.2-0.6-11.4,1.1l0.1,4.6c7.2-2.7,13.6-0.9,20.2,0.2c4.3,0.7,8.6,1.3,13.3-0.2l-23.1-23H24l8.2-8.2l31.1,31.1l-8.1,8.1
			l0-4L10.3,36.3z M32.2,63.3L32.2,63.3l-9.8-9.8l19.7,0L32.2,63.3z M46.7,41.3l-1.7,5.6c-0.2,0.7-0.5,1.2-0.8,1.6
			c-0.3,0.3-0.7,0.5-1.3,0.6c-0.5,0.1-1.2,0-2.1-0.2l0.2-1.4c0.7,0,1.2,0,1.4,0c0.2,0,0.4-0.2,0.5-0.4l0.1-0.2h-0.4
			c-0.3,0-0.5-0.1-0.7-0.2c-0.2-0.2-0.3-0.4-0.4-0.7l-1.5-4.6h2.1l1,3.8c0,0.1,0.1,0.1,0.2,0.1h0.2l1.1-4H46.7z M34.6,48.9v-6
			c0-0.5,0.2-0.9,0.5-1.2c0.3-0.3,0.7-0.5,1.2-0.5c1.7,0,2.9,0,3.5,0.1l-0.1,1.5h-2.6c-0.3,0-0.5,0.2-0.5,0.5v5.5H34.6z M30.9,43.4
			h1.7c0.4,0,0.7,0.2,0.7,0.7l0.1,4.8h-1.8l-0.1-4h-0.1l-0.6,2.7c-0.1,0.4-0.3,0.6-0.7,0.6h-0.9c-0.4,0-0.7-0.2-0.8-0.6l-0.6-2.7
			h-0.1l-0.1,4h-1.8l0.1-4.8c0-0.5,0.2-0.7,0.7-0.7h1.7c0.4,0,0.7,0.2,0.7,0.6l0.5,2c0,0.1,0.1,0.3,0.1,0.8h0.1c0-0.1,0-0.2,0-0.4
			c0-0.2,0-0.3,0.1-0.4l0.5-2C30.2,43.6,30.5,43.4,30.9,43.4z M22.2,45.6l-0.5-1.9c-0.1-0.4-0.1-0.6-0.1-0.8h-0.3
			c-0.1,0.3-0.1,0.5-0.2,0.8l-0.5,1.9H22.2z M22.6,47h-2.3l-0.5,1.8h-2.1l2.1-7.1c0-0.2,0.1-0.3,0.2-0.4c0.1-0.1,0.3-0.1,0.4-0.1
			h1.9c0.2,0,0.3,0,0.4,0.1c0.1,0.1,0.2,0.2,0.3,0.4l2.1,7.1h-2.1L22.6,47z M55.2,23l0-13.7l-13.7,0L32.2,0l-9.3,9.3H10.3v12.6
			L0,32.2l10.3,10.3l0,11l11,0l11,11l11-11l12,0l0-12l9.2-9.2L55.2,23z"/>
	</g>
</g>
<g id="Layer_2">
</g>
</svg>
